<?xml version="1.0" encoding="UTF-8"?>
<svg id="Layer_1" xmlns="http://www.w3.org/2000/svg" xmlns:xlink="http://www.w3.org/1999/xlink" version="1.1" viewBox="0 0 71.11868 71.11868">
  <!-- Generator: Adobe Illustrator 29.8.2, SVG Export Plug-In . SVG Version: 2.1.1 Build 3)  -->
  <defs>
    <style>
      .st0 {
        fill: none;
      }

      .st1 {
        fill: url(#linear-gradient);
      }

      .st2 {
        fill: #fff;
      }

      .st3 {
        clip-path: url(#clippath);
      }
    </style>
    <linearGradient id="linear-gradient" x1="-784.23742" y1="19.29072" x2="-785.76042" y2="19.29072" gradientTransform="translate(52704.64232 1329.61719) scale(67.088 -67.088)" gradientUnits="userSpaceOnUse">
      <stop offset="0" stop-color="#754a90"/>
      <stop offset="1" stop-color="#74b9f5"/>
    </linearGradient>
    <clipPath id="clippath">
      <rect class="st0" x="19.98267" y="14.98661" width="33.042" height="40.909"/>
    </clipPath>
  </defs>
  <g id="Group_31">
    <circle id="Ellipse_11" class="st1" cx="35.5047" cy="35.44162" r="33.544"/>
    <g id="Group_30">
      <g class="st3">
        <g id="Group_4">
          <path id="Path_2" class="st2" d="M32.05667,15.01461c.2245-.09445.48306.01096.57751.23546.00119.00283.00236.00568.00349.00854,1.05,5.21,2.969,9.672,8.143,11.821.574.238,1.7.485,2.128.737.383.227.242.636-.089.83-.441.259-1.6.5-2.2.759-4.989,2.146-7,6.642-7.951,11.727l-.439.316-.439-.316c-.967-5.1-2.95-9.568-7.95-11.727-.638-.276-1.673-.481-2.192-.768-.256-.141-.443-.427-.253-.686.67147-.32447,1.3723-.58431,2.093-.776,4.012-1.609,6.227-4.6,7.5-8.644.291-.924.466-2.434.807-3.206.059-.133.106-.265.263-.313"/>
          <path id="Path_3" class="st2" d="M44.53667,34.49858h.446c.266.092.5,1.519.612,1.872,1.021,3.314,2.359,5.523,5.6,7.013.5398.17311,1.06932.37677,1.586.61.968.689-1.188,1.182-1.586,1.363-3.2,1.454-4.55,3.686-5.574,6.94-.12392.65573-.31458,1.29707-.569,1.914-.16213.06847-.3428.0794-.512.031-.246-.085-.6-1.839-.73-2.231-1.027-3.137-2.395-5.253-5.477-6.654-.351-.159-1.622-.51-1.738-.746-.352-.723,1.075-.918,1.547-1.129,3.323-1.5,4.7-3.64,5.763-7.037.112-.353.374-1.854.635-1.945"/>
          <path id="Path_4" class="st2" d="M26.16067,52.7746c-.074-.076-.457-1.47-.577-1.762-.45449-1.1923-1.24684-2.22618-2.28-2.975-.365-.248-1.714-.789-1.82-.9-.6-.626.556-.876.867-1.04,1.31864-.62824,2.38133-1.69057,3.01-3.009.24811-.79898.55357-1.57901.914-2.334.19197-.14352.46394-.10424.60747.08773.0256.03424.046.07207.06053.11227.266.489.421,1.454.707,2.063.4787,1.01879,1.21069,1.89779,2.126,2.553.64346.28818,1.26307.62691,1.853,1.013.3.656-.912.878-1.412,1.164-1.19039.67476-2.11788,1.73193-2.632,3-.163.369-.618,1.93-.728,2.043-.21538.13921-.49466.12964-.7-.024"/>
        </g>
      </g>
    </g>
  </g>
</svg>