<?xml version="1.0" encoding="UTF-8"?>
<svg id="Layer_1" xmlns="http://www.w3.org/2000/svg" xmlns:xlink="http://www.w3.org/1999/xlink" version="1.1" viewBox="0 0 85.20453 85.20453">
  <!-- Generator: Adobe Illustrator 29.8.2, SVG Export Plug-In . SVG Version: 2.1.1 Build 3)  -->
  <defs>
    <style>
      .st0 {
        fill: url(#linear-gradient);
      }
    </style>
    <linearGradient id="linear-gradient" x1="110.57124" y1="42.61964" x2="-12.79176" y2="42.61964" gradientUnits="userSpaceOnUse">
      <stop offset="0" stop-color="#754a90"/>
      <stop offset="1" stop-color="#74b9f5"/>
    </linearGradient>
  </defs>
  <path class="st0" d="M42.69324,2.11964c22.36753,0,40.5,18.13247,40.5,40.5s-18.13247,40.5-40.5,40.5S2.19324,64.98717,2.19324,42.61964,20.32571,2.11964,42.69324,2.11964ZM59.46228,23.21168h-.94098l-39.02502,12.59399c-.64886.23694-1.17511.72498-1.46014,1.35425-.58582,1.2934-.01227,2.81689,1.28119,3.40277l15.22382,5.07361-.00366.00824.16406.06787-.00146.00732.01526-.00159,3.07507,1.27234,1.64404,3.98608.00116-.00153,4.98871,14.86261c.27936.4278.67944.763,1.14954.96313,1.31097.55817,2.82629-.05212,3.38446-1.3631l12.64697-39.23303v-.85498c-.22943-1.07336-1.06909-1.91107-2.14301-2.138Z"/>
</svg>