<?xml version="1.0" encoding="UTF-8"?>
<svg id="Layer_1" xmlns="http://www.w3.org/2000/svg" version="1.1" viewBox="0 0 44.62076 54.98291">
  <!-- Generator: Adobe Illustrator 29.8.2, SVG Export Plug-In . SVG Version: 2.1.1 Build 3)  -->
  <defs>
    <style>
      .st0 {
        fill: #fff;
      }
    </style>
  </defs>
  <path class="st0" d="M37.23176,53.48024c.094-.1.585-1.882.739-2.256.58174-1.52687,1.59616-2.85093,2.919-3.81.467-.318,2.194-1.01,2.33-1.153.764-.8-.711-1.122-1.11-1.331-1.68844-.80445-3.04911-2.16477-3.854-3.853-.31793-1.02288-.70928-2.02147-1.171-2.988-.24564-.18334-.5934-.13283-.77674.11282-.03388.04539-.06061.0957-.07926.14918-.34.626-.539,1.861-.906,2.642-.61261,1.30437-1.54944,2.42988-2.721,3.269-.82378.36996-1.61693.80466-2.372,1.3-.384.839,1.168,1.124,1.808,1.49,1.52445.8651,2.71171,2.2201,3.369,3.845.209.473.791,2.471.932,2.615.27485.17615.63004.16381.892-.031M41.30775,18.7352c-.66406.36798-1.98999.63098-2.80701.98401-6.17273,2.66504-8.74939,8.08728-10.03674,14.31995l-.00244-.01062c-.63342,1.82916-1.40405,0-1.40405,0l-.00256.0097c-1.27283-6.22559-3.88147-11.66968-10.04016-14.31903-.76904-.33099-2.255-.64099-2.81909-.97198-.42188-.24902-.60291-.77301-.11292-1.06299.547-.323,1.98901-.64404,2.724-.94403,6.62305-2.75201,9.08203-8.46503,10.42297-15.13599.00208-.00531.00427-.0105.00647-.01575.12268-.28632.45422-.41895.74048-.29626l.00415.00403c.2019.06097.26196.229.33691.39996.43408.98401.66101,2.91699,1.03394,4.10004,1.62708,5.17499,4.46313,9.00696,9.6001,11.06696.92285.24561,1.82019.57843,2.67993.99402.24304.33203.00403.69702-.32397.87799ZM22.16981,39.18619c-.14905.30402-1.77612.75598-2.2251.95599-3.94702,1.79303-5.698,4.50299-7.01294,8.51898-.13123.39911-.44507,1.88531-.72681,2.53894h0c-.01379.02948-.02295.05316-.03662.08002-.02173.0451-.04333.0899-.06458.12268-.3396.58429-.60034.36658-.76074.07568-.00037-.00018-.00085-.00012-.00134-.00031-.00073-.00183-.00122-.00378-.00195-.00562-.11548-.21198-.16504-.466-.16504-.466h0c-.23633-.64508-.43408-1.30371-.56201-1.97937-1.31091-4.16602-3.03687-7.02502-7.13696-8.88599-.51001-.23102-3.271-.86304-2.03101-1.745.66162-.29865,1.33984-.55939,2.03101-.78101,4.146-1.90704,5.86011-4.73999,7.16699-8.97601.11426-.3739.34058-1.66125.60608-2.17841l-.00378-.00244s.01147-.02026.02917-.04858c.01721-.02966.0343-.05402.05164-.07642.13672-.18414.43005-.44861.74487-.02014.03857.0426.07654.10217.1145.18146.00696.01337.01379.01868.02075.03284l-.00293.00391c.2583.5755.49255,1.84119.60571,2.19879,1.36694,4.349,3.125,7.09302,7.38,9.01001.604.271,2.43201.51996,1.98108,1.44598Z"/>
</svg>