<?xml version="1.0" encoding="UTF-8"?>
<svg id="Layer_1" xmlns="http://www.w3.org/2000/svg" xmlns:xlink="http://www.w3.org/1999/xlink" version="1.1" viewBox="0 0 44.62076 54.98291">
  <!-- Generator: Adobe Illustrator 29.8.2, SVG Export Plug-In . SVG Version: 2.1.1 Build 3)  -->
  <defs>
    <style>
      .st0 {
        fill: url(#linear-gradient2);
      }

      .st1 {
        fill: url(#linear-gradient1);
      }

      .st2 {
        fill: url(#linear-gradient);
      }
    </style>
    <linearGradient id="linear-gradient" x1="-989.73119" y1="72.44708" x2="-989.73119" y2="71.44707" gradientTransform="translate(13167.07113 1172.30727) scale(13.2665 -15.65734)" gradientUnits="userSpaceOnUse">
      <stop offset="0" stop-color="#754b91"/>
      <stop offset="1" stop-color="#74baf7"/>
    </linearGradient>
    <linearGradient id="linear-gradient1" x1="27.75989" y1="34.8415" x2="27.75989" y2="1.24648" gradientTransform="matrix(1,0,0,1,0,0)" xlink:href="#linear-gradient"/>
    <linearGradient id="linear-gradient2" x1="11.68406" y1="51.77096" x2="11.68406" y2="26.08216" gradientTransform="matrix(1,0,0,1,0,0)" xlink:href="#linear-gradient"/>
  </defs>
  <path id="Path_4" class="st2" d="M37.23176,53.48024c.094-.1.585-1.882.739-2.256.58174-1.52687,1.59616-2.85093,2.919-3.81.467-.318,2.194-1.01,2.33-1.153.764-.8-.711-1.122-1.11-1.331-1.68844-.80445-3.04911-2.16477-3.854-3.853-.31793-1.02288-.70928-2.02147-1.171-2.988-.24564-.18334-.5934-.13283-.77674.11282-.03388.04539-.06061.0957-.07926.14918-.34.626-.539,1.861-.906,2.642-.61261,1.30437-1.54944,2.42988-2.721,3.269-.82378.36996-1.61693.80466-2.372,1.3-.384.839,1.168,1.124,1.808,1.49,1.52445.8651,2.71171,2.2201,3.369,3.845.209.473.791,2.471.932,2.615.27485.17615.63004.16381.892-.031"/>
  <path class="st1" d="M41.63172,17.85721c-.85974-.41559-1.75708-.74841-2.67993-.99402-5.13696-2.06-7.97302-5.89197-9.6001-11.06696-.37292-1.18304-.59985-3.11603-1.03394-4.10004-.07495-.17096-.13501-.33899-.33691-.39996l-.00415-.00403c-.28625-.12268-.6178.00995-.74048.29626-.0022.00525-.00439.01044-.00647.01575-1.34094,6.67096-3.79993,12.38397-10.42297,15.13599-.73499.29999-2.177.62103-2.724.94403-.48999.28998-.30896.81396.11292,1.06299.56409.33099,2.05005.64099,2.81909.97198,6.15869,2.64935,8.76733,8.09344,10.04016,14.31903l.00256-.0097s.77063,1.82916,1.40405,0l.00244.01062c1.28735-6.23267,3.86401-11.65491,10.03674-14.31995.81702-.35303,2.14294-.61603,2.80701-.98401.328-.18097.56702-.54596.32397-.87799Z"/>
  <path class="st0" d="M20.18873,37.74021c-4.255-1.91699-6.01306-4.66101-7.38-9.01001-.11316-.3576-.34741-1.62329-.60571-2.19879l.00293-.00391c-.00696-.01416-.01379-.01947-.02075-.03284-.03796-.07928-.07593-.13885-.1145-.18146-.31482-.42847-.60815-.164-.74487.02014-.01733.0224-.03442.04675-.05164.07642-.0177.02832-.02917.04858-.02917.04858l.00378.00244c-.2655.51715-.49182,1.8045-.60608,2.17841-1.30688,4.23602-3.021,7.06897-7.16699,8.97601-.69116.22162-1.36938.48236-2.03101.78101-1.23999.88196,1.521,1.51398,2.03101,1.745,4.1001,1.86096,5.82605,4.71997,7.13696,8.88599.12793.67566.32568,1.33429.56201,1.97937h0s.04956.25403.16504.466c.00073.00183.00122.00378.00195.00562.00049.00018.00098.00012.00134.00031.1604.29089.42114.50861.76074-.07568.02124-.03278.04285-.07758.06458-.12268.01367-.02686.02283-.05054.03662-.08002h0c.28174-.65363.59558-2.13983.72681-2.53894,1.31494-4.01599,3.06592-6.72595,7.01294-8.51898.44897-.20001,2.07605-.65198,2.2251-.95599.45093-.92603-1.37708-1.17499-1.98108-1.44598Z"/>
</svg>